<svg xmlns="http://www.w3.org/2000/svg" version="1.1" xmlns:xlink="http://www.w3.org/1999/xlink" xmlns:svgjs="http://svgjs.dev/svgjs" width="2000" height="1500" viewBox="0 0 2000 1500"><rect width="2000" height="1500" fill="#003366"></rect><g transform="matrix(0.75,0,0,0.75,249.78667664670684,-0.21332335329350371)"><svg viewBox="0 0 334 334" data-background-color="#003366" preserveAspectRatio="xMidYMid meet" height="2000" width="2000" xmlns="http://www.w3.org/2000/svg" xmlns:xlink="http://www.w3.org/1999/xlink"><g id="tight-bounds" transform="matrix(1,0,0,1,0.04749999999998522,0.04750000000001364)"><svg viewBox="0 0 333.90454557049503 333.90454557049503" height="333.90454557049503" width="333.90454557049503"><g><svg></svg></g><g><svg viewBox="0 0 333.90454557049503 333.90454557049503" height="333.90454557049503" width="333.90454557049503"><g><path d="M0 166.952c0-92.205 74.747-166.952 166.952-166.952 92.205 0 166.952 74.747 166.953 166.952 0 92.205-74.747 166.952-166.953 166.953-92.205 0-166.952-74.747-166.952-166.953zM166.952 316.63c82.665 0 149.677-67.013 149.678-149.678 0-82.665-67.013-149.677-149.678-149.677-82.665 0-149.677 67.013-149.677 149.677 0 82.665 67.013 149.677 149.677 149.678z" data-fill-palette-color="tertiary" fill="#ffffff" stroke="transparent"></path><ellipse rx="160.27418187383762" ry="160.27418187383762" cx="166.95227278524752" cy="166.95227278524752" fill="#ffffff" stroke="transparent" stroke-width="0" fill-opacity="1" data-fill-palette-color="tertiary"></ellipse></g><g transform="matrix(1,0,0,1,87.40681837736022,71.17305217166896)"><svg viewBox="0 0 159.09090881577458 191.55844122715712" height="191.55844122715712" width="159.09090881577458"><g><svg viewBox="0 0 159.09090881577458 191.55844122715712" height="191.55844122715712" width="159.09090881577458"><g><svg viewBox="0 0 159.09090881577458 191.55844122715712" height="191.55844122715712" width="159.09090881577458"><g><svg viewBox="0 0 159.09090881577458 191.55844122715712" height="191.55844122715712" width="159.09090881577458"><g><svg viewBox="0 0 159.09090881577458 191.55844122715712" height="191.55844122715712" width="159.09090881577458"><g><svg viewBox="0 0 159.09090881577458 191.55844122715712" height="191.55844122715712" width="159.09090881577458"><g transform="matrix(1,0,0,1,0,0)"><svg width="159.09090881577458" viewBox="4.150000095367432 -35 29.399999618530273 35.400001525878906" height="191.55844122715712" data-palette-color="#003366"><path d="M10.45-29.4L10.45-5.2Q11-5.15 11.9-5.13 12.8-5.1 14.35-5.1L14.35-5.1Q20.7-5.1 23.83-8.33 26.95-11.55 26.95-17.35L26.95-17.35Q26.95-23.25 23.9-26.4 20.85-29.55 14.45-29.55L14.45-29.55Q11.65-29.55 10.45-29.4L10.45-29.4ZM33.55-17.35L33.55-17.35Q33.55-12.85 32.15-9.53 30.75-6.2 28.18-3.98 25.6-1.75 21.98-0.68 18.35 0.4 13.95 0.4L13.95 0.4Q11.85 0.4 9.2 0.23 6.55 0.05 4.15-0.5L4.15-0.5 4.15-34.15Q6.55-34.7 9.25-34.85 11.95-35 14.05-35L14.05-35Q18.4-35 22-33.98 25.6-32.95 28.18-30.78 30.75-28.6 32.15-25.28 33.55-21.95 33.55-17.35Z" opacity="1" transform="matrix(1,0,0,1,0,0)" fill="#003366" class="undefined-text-0" data-fill-palette-color="quaternary" id="text-0"></path></svg></g></svg></g></svg></g></svg></g><g></g></svg></g></svg></g></svg></g></svg></g><defs></defs></svg><rect width="333.90454557049503" height="333.90454557049503" fill="none" stroke="none" visibility="hidden"></rect></g></svg></g></svg>